<?xml version="1.0" encoding="UTF-8" standalone="no"?>
<!-- Created with Inkscape (http://www.inkscape.org/) -->

<svg
   xmlns:dc="http://purl.org/dc/elements/1.1/"
   xmlns:cc="http://creativecommons.org/ns#"
   xmlns:rdf="http://www.w3.org/1999/02/22-rdf-syntax-ns#"
   xmlns:svg="http://www.w3.org/2000/svg"
   xmlns="http://www.w3.org/2000/svg"
   xmlns:sodipodi="http://sodipodi.sourceforge.net/DTD/sodipodi-0.dtd"
   xmlns:inkscape="http://www.inkscape.org/namespaces/inkscape"
   width="640"
   height="480"
   viewBox="0 0 640 480"
   id="svg2"
   version="1.1"
   inkscape:version="0.91 r13725"
   sodipodi:docname="dmg_background.svg"
   inkscape:export-filename="/Users/kris/Development/src/github.com/jnglco/app/dmg_background.png"
   inkscape:export-xdpi="112.5"
   inkscape:export-ydpi="112.5">
  <defs
     id="defs4" />
  <sodipodi:namedview
     id="base"
     pagecolor="#ffffff"
     bordercolor="#666666"
     borderopacity="1.0"
     inkscape:pageopacity="0.0"
     inkscape:pageshadow="2"
     inkscape:zoom="1.979899"
     inkscape:cx="310.50723"
     inkscape:cy="196.75119"
     inkscape:document-units="px"
     inkscape:current-layer="layer1"
     showgrid="false"
     units="px"
     width="640px"
     inkscape:window-width="2136"
     inkscape:window-height="1377"
     inkscape:window-x="615"
     inkscape:window-y="193"
     inkscape:window-maximized="0" />
  <metadata
     id="metadata7">
    <rdf:RDF>
      <cc:Work
         rdf:about="">
        <dc:format>image/svg+xml</dc:format>
        <dc:type
           rdf:resource="http://purl.org/dc/dcmitype/StillImage" />
        <dc:title />
      </cc:Work>
    </rdf:RDF>
  </metadata>
  <g
     inkscape:label="Layer 1"
     inkscape:groupmode="layer"
     id="layer1"
     transform="translate(0,-572.3622)">
    <g
       style="font-style:normal;font-weight:normal;font-size:40px;line-height:125%;font-family:sans-serif;letter-spacing:0px;word-spacing:0px;fill:#000000;fill-opacity:1;stroke:none;stroke-width:1px;stroke-linecap:butt;stroke-linejoin:miter;stroke-opacity:1"
       id="text4136"
       transform="translate(109.09647,122.22846)"
       inkscape:export-xdpi="112.5"
       inkscape:export-ydpi="112.5">
      <path
         d="m 170.46795,717.86736 q 1.04,0 1.72,0.68 0.72,0.64 0.72,1.68 0,1 -0.72,1.68 -0.68,0.64 -1.72,0.64 l -13,0 q -1.04,0 -1.76,-0.68 -0.68,-0.72 -0.68,-1.76 l 0,-23.12 q 0,-1.04 0.72,-1.72 0.72,-0.72 1.84,-0.72 1,0 1.72,0.72 0.72,0.68 0.72,1.72 l 0,20.88 10.44,0 z"
         style="font-style:normal;font-variant:normal;font-weight:bold;font-stretch:normal;font-size:40px;line-height:125%;font-family:Quicksand;-inkscape-font-specification:'Quicksand, Bold';text-align:start;writing-mode:lr-tb;text-anchor:start"
         id="path4234"
         inkscape:connector-curvature="0" />
      <path
         d="m 196.24983,711.34736 q -0.04,0.96 -0.76,1.56 -0.72,0.6 -1.68,0.6 l -13.2,0 q 0.48,2.36 2.2,3.72 1.72,1.32 3.88,1.32 1.64,0 2.56,-0.28 0.92,-0.32 1.44,-0.64 0.56,-0.36 0.76,-0.48 0.72,-0.36 1.36,-0.36 0.84,0 1.44,0.6 0.6,0.6 0.6,1.4 0,1.08 -1.12,1.96 -1.12,0.92 -3,1.56 -1.88,0.64 -3.8,0.64 -3.36,0 -5.88,-1.4 -2.48,-1.4 -3.84,-3.84 -1.36,-2.48 -1.36,-5.56 0,-3.44 1.44,-6.04 1.44,-2.6 3.8,-3.96 2.36,-1.4 5.04,-1.4 2.64,0 4.96,1.44 2.36,1.44 3.76,3.88 1.4,2.44 1.4,5.28 z m -10.12,-6.2 q -4.64,0 -5.48,4.36 l 10.48,0 0,-0.28 q -0.16,-1.68 -1.64,-2.88 -1.48,-1.2 -3.36,-1.2 z"
         style="font-style:normal;font-variant:normal;font-weight:bold;font-stretch:normal;font-size:40px;line-height:125%;font-family:Quicksand;-inkscape-font-specification:'Quicksand, Bold';text-align:start;writing-mode:lr-tb;text-anchor:start"
         id="path4236"
         inkscape:connector-curvature="0" />
      <path
         d="m 210.57295,718.02736 q 0.56,0 1,0.56 0.48,0.52 0.48,1.4 0,1.08 -1.2,1.84 -1.16,0.72 -2.64,0.72 -2.48,0 -4.2,-1.04 -1.68,-1.08 -1.68,-4.52 l 0,-11.04 -1.84,0 q -0.96,0 -1.6,-0.64 -0.64,-0.64 -0.64,-1.6 0,-0.92 0.64,-1.52 0.64,-0.64 1.6,-0.64 l 1.84,0 0,-2.56 q 0,-1.04 0.68,-1.72 0.72,-0.72 1.76,-0.72 1,0 1.68,0.72 0.68,0.68 0.68,1.72 l 0,2.56 2.84,0 q 0.96,0 1.6,0.64 0.64,0.64 0.64,1.6 0,0.92 -0.64,1.56 -0.64,0.6 -1.6,0.6 l -2.84,0 0,10.84 q 0,0.84 0.44,1.24 0.44,0.36 1.2,0.36 0.32,0 0.88,-0.16 0.48,-0.2 0.92,-0.2 z"
         style="font-style:normal;font-variant:normal;font-weight:bold;font-stretch:normal;font-size:40px;line-height:125%;font-family:Quicksand;-inkscape-font-specification:'Quicksand, Bold';text-align:start;writing-mode:lr-tb;text-anchor:start"
         id="path4238"
         inkscape:connector-curvature="0" />
      <path
         d="m 216.0592,696.46736 q 0.16,-1.92 2.08,-1.92 l 1.24,0 q 0.88,0 1.32,0.4 0.48,0.36 0.48,1.04 0,0.4 -0.16,0.84 l -2.72,8.36 q -0.48,1.32 -1.72,1.32 -0.64,0 -0.96,-0.4 -0.28,-0.44 -0.2,-1.24 l 0.64,-8.4 z"
         style="font-style:normal;font-variant:normal;font-weight:bold;font-stretch:normal;font-size:40px;line-height:125%;font-family:Quicksand;-inkscape-font-specification:'Quicksand, Bold';text-align:start;writing-mode:lr-tb;text-anchor:start"
         id="path4240"
         inkscape:connector-curvature="0" />
      <path
         d="m 223.93483,719.22736 q -0.36,-0.48 -0.36,-1.2 0,-1.04 1.04,-1.76 0.56,-0.36 1.16,-0.36 0.84,0 1.6,0.76 1.2,1.24 2.48,1.84 1.32,0.6 3.16,0.6 3.12,-0.12 3.12,-2.36 0,-1.16 -1.08,-1.76 -1.04,-0.6 -3.28,-1.2 -2.32,-0.64 -3.8,-1.28 -1.44,-0.64 -2.52,-1.92 -1.04,-1.32 -1.04,-3.52 0,-1.92 1.08,-3.32 1.12,-1.44 2.88,-2.2 1.8,-0.8 3.8,-0.8 2.04,0 4.08,0.76 2.04,0.76 3.2,2.24 0.52,0.64 0.52,1.44 0,0.92 -0.76,1.52 -0.56,0.44 -1.28,0.44 -0.88,0 -1.44,-0.56 -0.72,-0.88 -1.88,-1.4 -1.12,-0.52 -2.56,-0.52 -3.04,0 -3.04,2.2 0,0.88 0.56,1.44 0.56,0.52 1.4,0.84 0.88,0.28 2.44,0.72 2.16,0.6 3.6,1.24 1.44,0.64 2.44,1.96 1,1.32 1,3.48 0,1.96 -1.16,3.44 -1.16,1.44 -3,2.2 -1.8,0.76 -3.72,0.76 -2.64,0 -4.92,-0.88 -2.28,-0.88 -3.72,-2.84 z"
         style="font-style:normal;font-variant:normal;font-weight:bold;font-stretch:normal;font-size:40px;line-height:125%;font-family:Quicksand;-inkscape-font-specification:'Quicksand, Bold';text-align:start;writing-mode:lr-tb;text-anchor:start"
         id="path4242"
         inkscape:connector-curvature="0" />
      <path
         d="m 273.28545,700.74736 q 1.04,0 1.72,0.68 0.68,0.68 0.68,1.76 l 0,17.8 q 0,4.88 -3.04,7.2 -3,2.36 -7.64,2.36 -1.2,0 -3.32,-0.4 -2.08,-0.4 -2.96,-0.8 -1.96,-0.84 -1.96,-2.32 0,-0.28 0.12,-0.64 0.24,-0.88 0.8,-1.36 0.6,-0.44 1.28,-0.44 0.4,0 0.76,0.12 0.16,0.04 1.96,0.72 1.84,0.72 3.32,0.72 2.96,0 4.4,-1.2 1.48,-1.16 1.48,-3.32 l 0,-1.92 q -0.88,1.24 -2.68,2.24 -1.76,1 -3.8,1 -2.8,0 -5.12,-1.4 -2.28,-1.44 -3.6,-3.96 -1.32,-2.52 -1.32,-5.72 0,-3.2 1.28,-5.72 1.32,-2.56 3.56,-3.96 2.28,-1.44 5.04,-1.44 2.04,0 3.8,0.84 1.76,0.84 2.84,2.04 l 0,-0.44 q 0,-1.04 0.68,-1.72 0.68,-0.72 1.72,-0.72 z m -8.28,17.8 q 2.68,0 4.36,-1.88 1.72,-1.92 1.72,-4.8 0,-2.88 -1.72,-4.8 -1.68,-1.92 -4.36,-1.92 -2.68,0 -4.36,1.92 -1.68,1.92 -1.68,4.8 0,2.88 1.68,4.8 1.68,1.88 4.36,1.88 z"
         style="font-style:normal;font-variant:normal;font-weight:bold;font-stretch:normal;font-size:40px;line-height:125%;font-family:Quicksand;-inkscape-font-specification:'Quicksand, Bold';text-align:start;writing-mode:lr-tb;text-anchor:start"
         id="path4244"
         inkscape:connector-curvature="0" />
      <path
         d="m 299.2967,711.34736 q -0.04,0.96 -0.76,1.56 -0.72,0.6 -1.68,0.6 l -13.2,0 q 0.48,2.36 2.2,3.72 1.72,1.32 3.88,1.32 1.64,0 2.56,-0.28 0.92,-0.32 1.44,-0.64 0.56,-0.36 0.76,-0.48 0.72,-0.36 1.36,-0.36 0.84,0 1.44,0.6 0.6,0.6 0.6,1.4 0,1.08 -1.12,1.96 -1.12,0.92 -3,1.56 -1.88,0.64 -3.8,0.64 -3.36,0 -5.88,-1.4 -2.48,-1.4 -3.84,-3.84 -1.36,-2.48 -1.36,-5.56 0,-3.44 1.44,-6.04 1.44,-2.6 3.8,-3.96 2.36,-1.4 5.04,-1.4 2.64,0 4.96,1.44 2.36,1.44 3.76,3.88 1.4,2.44 1.4,5.28 z m -10.12,-6.2 q -4.64,0 -5.48,4.36 l 10.48,0 0,-0.28 q -0.16,-1.68 -1.64,-2.88 -1.48,-1.2 -3.36,-1.2 z"
         style="font-style:normal;font-variant:normal;font-weight:bold;font-stretch:normal;font-size:40px;line-height:125%;font-family:Quicksand;-inkscape-font-specification:'Quicksand, Bold';text-align:start;writing-mode:lr-tb;text-anchor:start"
         id="path4246"
         inkscape:connector-curvature="0" />
      <path
         d="m 313.61983,718.02736 q 0.56,0 1,0.56 0.48,0.52 0.48,1.4 0,1.08 -1.2,1.84 -1.16,0.72 -2.64,0.72 -2.48,0 -4.2,-1.04 -1.68,-1.08 -1.68,-4.52 l 0,-11.04 -1.84,0 q -0.96,0 -1.6,-0.64 -0.64,-0.64 -0.64,-1.6 0,-0.92 0.64,-1.52 0.64,-0.64 1.6,-0.64 l 1.84,0 0,-2.56 q 0,-1.04 0.68,-1.72 0.72,-0.72 1.76,-0.72 1,0 1.68,0.72 0.68,0.68 0.68,1.72 l 0,2.56 2.84,0 q 0.96,0 1.6,0.64 0.64,0.64 0.64,1.6 0,0.92 -0.64,1.56 -0.64,0.6 -1.6,0.6 l -2.84,0 0,10.84 q 0,0.84 0.44,1.24 0.44,0.36 1.2,0.36 0.32,0 0.88,-0.16 0.48,-0.2 0.92,-0.2 z"
         style="font-style:normal;font-variant:normal;font-weight:bold;font-stretch:normal;font-size:40px;line-height:125%;font-family:Quicksand;-inkscape-font-specification:'Quicksand, Bold';text-align:start;writing-mode:lr-tb;text-anchor:start"
         id="path4248"
         inkscape:connector-curvature="0" />
      <path
         d="m 329.63795,719.22736 q -0.36,-0.48 -0.36,-1.2 0,-1.04 1.04,-1.76 0.56,-0.36 1.16,-0.36 0.84,0 1.6,0.76 1.2,1.24 2.48,1.84 1.32,0.6 3.16,0.6 3.12,-0.12 3.12,-2.36 0,-1.16 -1.08,-1.76 -1.04,-0.6 -3.28,-1.2 -2.32,-0.64 -3.8,-1.28 -1.44,-0.64 -2.52,-1.92 -1.04,-1.32 -1.04,-3.52 0,-1.92 1.08,-3.32 1.12,-1.44 2.88,-2.2 1.8,-0.8 3.8,-0.8 2.04,0 4.08,0.76 2.04,0.76 3.2,2.24 0.52,0.64 0.52,1.44 0,0.92 -0.76,1.52 -0.56,0.44 -1.28,0.44 -0.88,0 -1.44,-0.56 -0.72,-0.88 -1.88,-1.4 -1.12,-0.52 -2.56,-0.52 -3.04,0 -3.04,2.2 0,0.88 0.56,1.44 0.56,0.52 1.4,0.84 0.88,0.28 2.44,0.72 2.16,0.6 3.6,1.24 1.44,0.64 2.44,1.96 1,1.32 1,3.48 0,1.96 -1.16,3.44 -1.16,1.44 -3,2.2 -1.8,0.76 -3.72,0.76 -2.64,0 -4.92,-0.88 -2.28,-0.88 -3.72,-2.84 z"
         style="font-style:normal;font-variant:normal;font-weight:bold;font-stretch:normal;font-size:40px;line-height:125%;font-family:Quicksand;-inkscape-font-specification:'Quicksand, Bold';text-align:start;writing-mode:lr-tb;text-anchor:start"
         id="path4250"
         inkscape:connector-curvature="0" />
      <path
         d="m 360.4167,718.02736 q 0.56,0 1,0.56 0.48,0.52 0.48,1.4 0,1.08 -1.2,1.84 -1.16,0.72 -2.64,0.72 -2.48,0 -4.2,-1.04 -1.68,-1.08 -1.68,-4.52 l 0,-11.04 -1.84,0 q -0.96,0 -1.6,-0.64 -0.64,-0.64 -0.64,-1.6 0,-0.92 0.64,-1.52 0.64,-0.64 1.6,-0.64 l 1.84,0 0,-2.56 q 0,-1.04 0.68,-1.72 0.72,-0.72 1.76,-0.72 1,0 1.68,0.72 0.68,0.68 0.68,1.72 l 0,2.56 2.84,0 q 0.96,0 1.6,0.64 0.64,0.64 0.64,1.6 0,0.92 -0.64,1.56 -0.64,0.6 -1.6,0.6 l -2.84,0 0,10.84 q 0,0.84 0.44,1.24 0.44,0.36 1.2,0.36 0.32,0 0.88,-0.16 0.48,-0.2 0.92,-0.2 z"
         style="font-style:normal;font-variant:normal;font-weight:bold;font-stretch:normal;font-size:40px;line-height:125%;font-family:Quicksand;-inkscape-font-specification:'Quicksand, Bold';text-align:start;writing-mode:lr-tb;text-anchor:start"
         id="path4252"
         inkscape:connector-curvature="0" />
      <path
         d="m 383.82295,700.74736 q 1.04,0 1.72,0.68 0.68,0.68 0.68,1.76 l 0,16.92 q 0,1.04 -0.68,1.76 -0.68,0.68 -1.72,0.68 -1.04,0 -1.72,-0.68 -0.64,-0.68 -0.68,-1.72 -1,1.16 -2.72,2 -1.68,0.8 -3.56,0.8 -2.76,0 -5,-1.4 -2.24,-1.44 -3.56,-3.96 -1.28,-2.52 -1.28,-5.72 0,-3.2 1.28,-5.72 1.28,-2.56 3.48,-3.96 2.24,-1.44 4.92,-1.44 1.92,0 3.6,0.72 1.68,0.68 2.84,1.76 l 0,-0.04 q 0,-1.04 0.68,-1.72 0.68,-0.72 1.72,-0.72 z m -8.08,17.8 q 2.6,0 4.24,-1.88 1.64,-1.92 1.64,-4.8 0,-2.88 -1.64,-4.8 -1.64,-1.92 -4.24,-1.92 -2.56,0 -4.2,1.92 -1.64,1.92 -1.64,4.8 0,2.88 1.6,4.8 1.64,1.88 4.24,1.88 z"
         style="font-style:normal;font-variant:normal;font-weight:bold;font-stretch:normal;font-size:40px;line-height:125%;font-family:Quicksand;-inkscape-font-specification:'Quicksand, Bold';text-align:start;writing-mode:lr-tb;text-anchor:start"
         id="path4254"
         inkscape:connector-curvature="0" />
      <path
         d="m 402.54483,700.74736 q 1.2,0 2,0.68 0.84,0.68 0.84,1.6 0,1.24 -0.64,1.88 -0.64,0.6 -1.52,0.6 -0.6,0 -1.36,-0.28 -0.12,-0.04 -0.56,-0.16 -0.4,-0.12 -0.88,-0.12 -1.04,0 -2,0.64 -0.96,0.64 -1.6,1.96 -0.6,1.28 -0.6,3.08 l 0,9.48 q 0,1.04 -0.68,1.76 -0.68,0.68 -1.72,0.68 -1.04,0 -1.72,-0.68 -0.68,-0.72 -0.68,-1.76 l 0,-16.52 q 0,-1.04 0.68,-1.72 0.68,-0.72 1.72,-0.72 1.04,0 1.72,0.72 0.68,0.68 0.68,1.72 l 0,0.52 q 0.92,-1.64 2.64,-2.48 1.72,-0.88 3.68,-0.88 z"
         style="font-style:normal;font-variant:normal;font-weight:bold;font-stretch:normal;font-size:40px;line-height:125%;font-family:Quicksand;-inkscape-font-specification:'Quicksand, Bold';text-align:start;writing-mode:lr-tb;text-anchor:start"
         id="path4256"
         inkscape:connector-curvature="0" />
      <path
         d="m 419.08858,718.02736 q 0.56,0 1,0.56 0.48,0.52 0.48,1.4 0,1.08 -1.2,1.84 -1.16,0.72 -2.64,0.72 -2.48,0 -4.2,-1.04 -1.68,-1.08 -1.68,-4.52 l 0,-11.04 -1.84,0 q -0.96,0 -1.6,-0.64 -0.64,-0.64 -0.64,-1.6 0,-0.92 0.64,-1.52 0.64,-0.64 1.6,-0.64 l 1.84,0 0,-2.56 q 0,-1.04 0.68,-1.72 0.72,-0.72 1.76,-0.72 1,0 1.68,0.72 0.68,0.68 0.68,1.72 l 0,2.56 2.84,0 q 0.96,0 1.6,0.64 0.64,0.64 0.64,1.6 0,0.92 -0.64,1.56 -0.64,0.6 -1.6,0.6 l -2.84,0 0,10.84 q 0,0.84 0.44,1.24 0.44,0.36 1.2,0.36 0.32,0 0.88,-0.16 0.48,-0.2 0.92,-0.2 z"
         style="font-style:normal;font-variant:normal;font-weight:bold;font-stretch:normal;font-size:40px;line-height:125%;font-family:Quicksand;-inkscape-font-specification:'Quicksand, Bold';text-align:start;writing-mode:lr-tb;text-anchor:start"
         id="path4258"
         inkscape:connector-curvature="0" />
      <path
         d="m 444.14045,711.34736 q -0.04,0.96 -0.76,1.56 -0.72,0.6 -1.68,0.6 l -13.2,0 q 0.48,2.36 2.2,3.72 1.72,1.32 3.88,1.32 1.64,0 2.56,-0.28 0.92,-0.32 1.44,-0.64 0.56,-0.36 0.76,-0.48 0.72,-0.36 1.36,-0.36 0.84,0 1.44,0.6 0.6,0.6 0.6,1.4 0,1.08 -1.12,1.96 -1.12,0.92 -3,1.56 -1.88,0.64 -3.8,0.64 -3.36,0 -5.88,-1.4 -2.48,-1.4 -3.84,-3.84 -1.36,-2.48 -1.36,-5.56 0,-3.44 1.44,-6.04 1.44,-2.6 3.8,-3.96 2.36,-1.4 5.04,-1.4 2.64,0 4.96,1.44 2.36,1.44 3.76,3.88 1.4,2.44 1.4,5.28 z m -10.12,-6.2 q -4.64,0 -5.48,4.36 l 10.48,0 0,-0.28 q -0.16,-1.68 -1.64,-2.88 -1.48,-1.2 -3.36,-1.2 z"
         style="font-style:normal;font-variant:normal;font-weight:bold;font-stretch:normal;font-size:40px;line-height:125%;font-family:Quicksand;-inkscape-font-specification:'Quicksand, Bold';text-align:start;writing-mode:lr-tb;text-anchor:start"
         id="path4260"
         inkscape:connector-curvature="0" />
      <path
         d="m 465.46358,692.94736 q 1.04,0 1.72,0.68 0.68,0.68 0.68,1.76 l 0,24.72 q 0,1.04 -0.68,1.76 -0.68,0.68 -1.72,0.68 -1.04,0 -1.72,-0.68 -0.64,-0.68 -0.68,-1.72 -1,1.16 -2.72,2 -1.68,0.8 -3.56,0.8 -2.76,0 -5,-1.4 -2.24,-1.44 -3.56,-3.96 -1.28,-2.52 -1.28,-5.72 0,-3.2 1.28,-5.72 1.28,-2.56 3.48,-3.96 2.24,-1.44 4.92,-1.44 1.92,0 3.6,0.72 1.68,0.68 2.84,1.76 l 0,-7.84 q 0,-1.04 0.68,-1.72 0.68,-0.72 1.72,-0.72 z m -8.08,25.6 q 2.6,0 4.24,-1.88 1.64,-1.92 1.64,-4.8 0,-2.88 -1.64,-4.8 -1.64,-1.92 -4.24,-1.92 -2.56,0 -4.2,1.92 -1.64,1.92 -1.64,4.8 0,2.88 1.6,4.8 1.64,1.88 4.24,1.88 z"
         style="font-style:normal;font-variant:normal;font-weight:bold;font-stretch:normal;font-size:40px;line-height:125%;font-family:Quicksand;-inkscape-font-specification:'Quicksand, Bold';text-align:start;writing-mode:lr-tb;text-anchor:start"
         id="path4262"
         inkscape:connector-curvature="0" />
      <path
         d="m 475.82545,713.70736 q -1.36,0 -1.48,-1.52 l -1.16,-14.72 q -0.08,-1.24 0.64,-2.08 0.76,-0.84 1.96,-0.84 1.2,0 1.96,0.84 0.76,0.84 0.64,2.08 l -1.12,14.72 q -0.12,1.52 -1.44,1.52 z m -0.28,8.84 q -1.16,0 -1.8,-0.6 -0.6,-0.64 -0.6,-1.8 l 0,-0.68 q 0,-1.16 0.6,-1.76 0.64,-0.64 1.8,-0.64 l 0.52,0 q 1.16,0 1.76,0.64 0.64,0.6 0.64,1.76 l 0,0.68 q 0,1.16 -0.64,1.8 -0.6,0.6 -1.76,0.6 l -0.52,0 z"
         style="font-style:normal;font-variant:normal;font-weight:bold;font-stretch:normal;font-size:40px;line-height:125%;font-family:Quicksand;-inkscape-font-specification:'Quicksand, Bold';text-align:start;writing-mode:lr-tb;text-anchor:start"
         id="path4264"
         inkscape:connector-curvature="0" />
    </g>
    <g
       style="font-style:normal;font-weight:normal;font-size:40px;line-height:125%;font-family:sans-serif;letter-spacing:0px;word-spacing:0px;fill:#000000;fill-opacity:1;stroke:none;stroke-width:1px;stroke-linecap:butt;stroke-linejoin:miter;stroke-opacity:1"
       id="text4144"
       transform="translate(-78.286824,80.812203)"
       inkscape:export-xdpi="112.5"
       inkscape:export-ydpi="112.5" />
    <text
       xml:space="preserve"
       style="font-style:normal;font-weight:normal;font-size:40px;line-height:125%;font-family:sans-serif;letter-spacing:0px;word-spacing:0px;fill:#000000;fill-opacity:1;stroke:none;stroke-width:1px;stroke-linecap:butt;stroke-linejoin:miter;stroke-opacity:1"
       x="260.61935"
       y="939.73016"
       id="text4149"
       sodipodi:linespacing="125%"
       inkscape:export-xdpi="112.5"
       inkscape:export-ydpi="112.5"><tspan
         sodipodi:role="line"
         id="tspan4151"
         x="260.61935"
         y="939.73016" /></text>
  </g>
</svg>
