<?xml version="1.0" encoding="UTF-8" standalone="no"?>
<svg
   xmlns:dc="http://purl.org/dc/elements/1.1/"
   xmlns:cc="http://creativecommons.org/ns#"
   xmlns:rdf="http://www.w3.org/1999/02/22-rdf-syntax-ns#"
   xmlns:svg="http://www.w3.org/2000/svg"
   xmlns="http://www.w3.org/2000/svg"
   version="1.1"
   x="0px"
   y="0px"
   viewBox="0 0 117.09946 65.613297"
   enable-background="new 0 0 100 100"
   xml:space="preserve"
   id="svg2"
   width="117.09946"
   height="65.613297"><metadata
     id="metadata24"><rdf:RDF><cc:Work
         rdf:about=""><dc:format>image/svg+xml</dc:format><dc:type
           rdf:resource="http://purl.org/dc/dcmitype/StillImage" /><dc:title></dc:title></cc:Work></rdf:RDF></metadata><defs
     id="defs22" /><g
     display="none"
     id="g4"
     style="display:none"
     transform="translate(22.098466,-19.762)"><rect
       x="-65.640999"
       y="-472.841"
       display="inline"
       width="1259.937"
       height="593.54102"
       id="rect6"
       style="display:inline;fill:#000000" /></g><g
     id="g8"
     style="fill:#ff9955"
     transform="translate(22.098466,-19.762)"><path
       id="path10"
       d="m 83.991,29.975 c -6.07,0 -11.009,4.939 -11.009,11.009 l 0,29.195 c 0,1.708 -1.39,3.099 -3.099,3.099 l -2.236,0 0,-3.323 c 0,-8.915 -4.554,-16.785 -11.457,-21.41 0.975,-1.861 1.457,-4.112 1.457,-6.794 0,-0.649 -0.034,-1.29 -0.089,-1.925 -0.04,-0.459 -0.09,-0.916 -0.158,-1.366 0.915,0.626 2.02,0.993 3.21,0.993 3.145,0 5.703,-2.558 5.703,-5.703 0,-3.144 -2.558,-5.702 -5.703,-5.702 -2.46,0 -4.554,1.568 -5.353,3.754 -0.211,-0.413 -0.432,-0.82 -0.668,-1.218 -3.832,-6.471 -10.881,-10.822 -18.931,-10.822 -8.05,0 -15.1,4.351 -18.932,10.822 -0.236,0.398 -0.457,0.804 -0.668,1.218 C 15.259,29.616 13.164,28.048 10.705,28.048 7.558,28.047 5,30.605 5,33.749 c 0,3.145 2.558,5.703 5.703,5.703 1.19,0 2.295,-0.367 3.211,-0.993 -0.068,0.451 -0.118,0.907 -0.158,1.367 -0.055,0.635 -0.089,1.276 -0.089,1.925 0,7.387 3.605,11.549 11.344,13.1 l 2.917,0.584 0,-0.543 -0.916,-0.751 -1.199,-0.984 c -0.234,-0.192 -0.415,-0.353 -0.568,-0.506 l -4.891,-4.892 c -1.535,-1.535 -2.381,-3.584 -2.381,-5.77 0,-2.186 0.845,-4.235 2.381,-5.77 l 1.756,-1.757 c 1.535,-1.535 3.584,-2.381 5.77,-2.381 2.186,0 4.235,0.845 5.77,2.38 l 1.325,1.325 0.683,0.683 0.683,-0.683 1.324,-1.325 c 1.538,-1.538 3.588,-2.386 5.77,-2.386 2.182,0 4.232,0.847 5.771,2.385 l 1.755,1.756 c 1.535,1.535 2.381,3.584 2.381,5.77 0,2.186 -0.845,4.235 -2.381,5.77 l -4.892,4.892 c -0.151,0.151 -0.332,0.312 -0.568,0.506 l -2.115,1.735 0,0.543 0,2.759 c 0,3.577 -2.91,6.486 -6.487,6.486 l -2.484,0 c -0.268,0 -0.531,-0.021 -0.791,-0.053 -2.019,-0.247 -3.749,-1.424 -4.757,-3.089 l 0,16.171 c 0,1.313 1.065,2.4545 2.378,2.4545 l 28.55,0 c 3.335243,0.01088 -0.715333,0 0.966,0 1.681333,0 9.122,0 9.122,0 5.548,0 10.061,-4.4365 10.061,-9.9845 l 0,-29.193 c 0,-2.232 1.816,-4.047 4.048,-4.047 2.232,0 4.047,1.815 4.047,4.047 l 0,8.839 c 0,1.922 1.559,3.481 3.481,3.481 1.922,0 3.481,-1.559 3.481,-3.481 l 0,-8.839 C 95,34.913 90.061,29.975 83.991,29.975 Z"
       style="fill:#ff9955" /><path
       d="m 34.618,52.437 c 0,-0.853 -0.673,-1.543 -1.515,-1.583 -0.843,0.04 -1.515,0.73 -1.515,1.583 0,0.853 0.673,1.543 1.515,1.583 0.843,-0.04 1.515,-0.73 1.515,-1.583 z"
       id="path12"
       style="fill:#ff9955" /><path
       d="m 38.059,54.02 c 0.843,-0.04 1.515,-0.73 1.515,-1.583 0,-0.853 -0.673,-1.543 -1.515,-1.583 -0.843,0.04 -1.515,0.73 -1.515,1.583 -10e-4,0.853 0.672,1.543 1.515,1.583 z"
       id="path14"
       style="fill:#ff9955" /><path
       d="m 33.185,43.382 c 0,-2.834 -2.306,-5.139 -5.14,-5.139 -2.834,0 -5.139,2.305 -5.139,5.139 0,2.834 2.305,5.139 5.139,5.139 2.834,0 5.14,-2.305 5.14,-5.139 z m -5.14,2.203 c -1.214,0 -2.202,-0.988 -2.202,-2.203 0,-1.215 0.988,-2.203 2.202,-2.203 1.215,0 2.203,0.988 2.203,2.203 0,1.215 -0.988,2.203 -2.203,2.203 z"
       id="path16"
       style="fill:#ff9955" /><path
       d="m 43.267,48.277 c 2.834,0 5.14,-2.305 5.14,-5.139 0,-2.834 -2.306,-5.139 -5.14,-5.139 -2.834,0 -5.14,2.305 -5.14,5.139 10e-4,2.833 2.307,5.139 5.14,5.139 z m 0,-7.342 c 1.215,0 2.203,0.988 2.203,2.203 0,1.214 -0.988,2.203 -2.203,2.203 -1.215,0 -2.203,-0.988 -2.203,-2.203 10e-4,-1.215 0.989,-2.203 2.203,-2.203 z"
       id="path18"
       style="fill:#ff9955" /></g><g
     style="font-style:normal;font-weight:normal;font-size:25.48137283px;line-height:125%;font-family:sans-serif;letter-spacing:0px;word-spacing:0px;fill:#4d4d4d;fill-opacity:1;stroke:none;stroke-width:1px;stroke-linecap:butt;stroke-linejoin:miter;stroke-opacity:1"
     id="text4203"
     transform="translate(22.019349,-19.801559)"><path
       d="m -20.592392,85.31293 q -0.611553,0 -1.019255,-0.407702 -0.407702,-0.407702 -0.407702,-1.019255 l 0,-0.280295 q 0,-1.019255 1.29955,-1.401476 0.815404,-0.254814 1.019255,-0.866366 0.229332,-0.586072 0.229332,-1.65629 l 0,-11.441136 q 0,-0.662516 0.433183,-1.095699 0.433184,-0.458665 1.095699,-0.458665 0.662516,0 1.095699,0.458665 0.433184,0.433183 0.433184,1.095699 l 0,12.332984 q 0,1.426957 -0.56059,2.497175 -0.535109,1.070218 -1.503401,1.656289 -0.942811,0.586072 -2.114954,0.586072 z m 2.5991,-20.283173 q -0.866367,0 -1.223106,-0.280295 -0.356739,-0.280295 -0.356739,-0.993774 l 0,-0.484146 q 0,-0.713478 0.38222,-0.993773 0.382221,-0.280295 1.223106,-0.280295 0.891848,0 1.248587,0.280295 0.35674,0.280295 0.35674,0.993773 l 0,0.484146 q 0,0.73896 -0.382221,1.019255 -0.356739,0.254814 -1.248587,0.254814 z"
       style="font-style:normal;font-variant:normal;font-weight:bold;font-stretch:normal;font-size:25.48137283px;line-height:125%;font-family:Quicksand;-inkscape-font-specification:'Quicksand, Bold';text-align:start;writing-mode:lr-tb;text-anchor:start;fill:#4d4d4d"
       id="path4208" /><path
       d="m -5.5484288,66.431232 q 2.5991001,0 3.5928736,1.554364 0.99377354,1.528883 0.99377354,4.255389 l 0,6.523232 q 0,0.662516 -0.43318334,1.12118 -0.4331833,0.433184 -1.095699,0.433184 -0.6625157,0 -1.0956991,-0.433184 -0.4331833,-0.458664 -0.4331833,-1.12118 l 0,-6.523232 q 0,-1.401475 -0.5860716,-2.191398 -0.5860715,-0.815404 -2.0130284,-0.815404 -1.4779197,0 -2.318805,0.866367 -0.8408853,0.840885 -0.8408853,2.140435 l 0,6.523232 q 0,0.662516 -0.4331833,1.12118 -0.433183,0.433184 -1.095699,0.433184 -0.662516,0 -1.095699,-0.433184 -0.433183,-0.458664 -0.433183,-1.12118 l 0,-10.523807 q 0,-0.662516 0.433183,-1.095699 0.433183,-0.458665 1.095699,-0.458665 0.662516,0 1.095699,0.458665 0.4331833,0.433183 0.4331833,1.095699 l 0,0.433183 q 0.6879971,-0.917329 1.7836961,-1.579845 1.1211804,-0.662516 2.4462118,-0.662516 z"
       style="font-style:normal;font-variant:normal;font-weight:bold;font-stretch:normal;font-size:25.48137283px;line-height:125%;font-family:Quicksand;-inkscape-font-specification:'Quicksand, Bold';text-align:start;writing-mode:lr-tb;text-anchor:start;fill:#4d4d4d"
       id="path4210" /><path
       d="m 3.693745,80.293099 q -0.7389598,0 -1.1466617,-0.38222 -0.3822206,-0.407702 -0.3822206,-1.146662 l 0,-0.433183 q 0,-0.73896 0.3822206,-1.121181 0.4077019,-0.407702 1.1466617,-0.407702 l 0.3312579,0 q 0.7389598,0 1.1211804,0.407702 0.407702,0.382221 0.407702,1.121181 l 0,0.433183 q 0,0.73896 -0.407702,1.146662 -0.3822206,0.38222 -1.1211804,0.38222 l -0.3312579,0 z"
       style="font-style:normal;font-variant:normal;font-weight:bold;font-stretch:normal;font-size:25.48137283px;line-height:125%;font-family:Quicksand;-inkscape-font-specification:'Quicksand, Bold';text-align:start;writing-mode:lr-tb;text-anchor:start;fill:#4d4d4d"
       id="path4212" /><path
       d="m 20.001825,66.431232 q 0.662515,0 1.095699,0.433184 0.433183,0.433183 0.433183,1.12118 l 0,11.339211 q 0,3.108728 -1.936584,4.586647 -1.911103,1.503401 -4.866943,1.503401 -0.764441,0 -2.114954,-0.254814 -1.325031,-0.254813 -1.885621,-0.509627 -1.2485874,-0.535109 -1.2485874,-1.47792 0,-0.178369 0.076444,-0.407702 0.1528882,-0.56059 0.5096274,-0.866366 0.382221,-0.280295 0.815404,-0.280295 0.254814,0 0.484146,0.07644 0.101926,0.02548 1.248587,0.458664 1.172144,0.458665 2.114954,0.458665 1.885622,0 2.802951,-0.764441 0.942811,-0.73896 0.942811,-2.114954 l 0,-1.223106 q -0.56059,0.789923 -1.707252,1.426957 -1.12118,0.637034 -2.42073,0.637034 -1.783696,0 -3.261616,-0.891848 Q 9.6309059,78.764217 8.7900206,77.15889 7.9491353,75.553564 7.9491353,73.515054 q 0,-2.03851 0.8154039,-3.643836 0.8408853,-1.630808 2.2678418,-2.522656 1.452439,-0.91733 3.210653,-0.91733 1.29955,0 2.420731,0.535109 1.12118,0.535109 1.809177,1.29955 l 0,-0.280295 q 0,-0.662516 0.433184,-1.095699 0.433183,-0.458665 1.095699,-0.458665 z M 14.72718,77.770443 q 1.707252,0 2.77747,-1.197624 1.095699,-1.223106 1.095699,-3.057765 0,-1.834659 -1.095699,-3.057765 -1.070218,-1.223106 -2.77747,-1.223106 -1.707252,0 -2.777469,1.223106 -1.070218,1.223106 -1.070218,3.057765 0,1.834659 1.070218,3.057765 1.070217,1.197624 2.777469,1.197624 z"
       style="font-style:normal;font-variant:normal;font-weight:bold;font-stretch:normal;font-size:25.48137283px;line-height:125%;font-family:Quicksand;-inkscape-font-specification:'Quicksand, Bold';text-align:start;writing-mode:lr-tb;text-anchor:start;fill:#4d4d4d"
       id="path4214" /><path
       d="m 28.151086,78.764217 q 0,0.662516 -0.458664,1.12118 -0.433184,0.433184 -1.095699,0.433184 -0.637035,0 -1.070218,-0.433184 -0.433183,-0.458664 -0.433183,-1.12118 l 0,-15.747489 q 0,-0.662515 0.433183,-1.095699 0.458665,-0.458664 1.12118,-0.458664 0.637035,0 1.070218,0.458664 0.433183,0.433184 0.433183,1.095699 l 0,15.747489 z"
       style="font-style:normal;font-variant:normal;font-weight:bold;font-stretch:normal;font-size:25.48137283px;line-height:125%;font-family:Quicksand;-inkscape-font-specification:'Quicksand, Bold';text-align:start;writing-mode:lr-tb;text-anchor:start;fill:#4d4d4d"
       id="path4216" /></g></svg>