<?xml version="1.0" encoding="UTF-8" standalone="no"?>
<svg
   xmlns:dc="http://purl.org/dc/elements/1.1/"
   xmlns:cc="http://creativecommons.org/ns#"
   xmlns:rdf="http://www.w3.org/1999/02/22-rdf-syntax-ns#"
   xmlns:svg="http://www.w3.org/2000/svg"
   xmlns="http://www.w3.org/2000/svg"
   height="60.403336"
   width="90.000999"
   version="1.1"
   x="0px"
   y="0px"
   viewBox="0 0 90.000999 60.403336"
   enable-background="new 0 0 100 100"
   xml:space="preserve"
   id="svg2"><metadata
     id="metadata24"><rdf:RDF><cc:Work
         rdf:about=""><dc:format>image/svg+xml</dc:format><dc:type
           rdf:resource="http://purl.org/dc/dcmitype/StillImage" /><dc:title></dc:title></cc:Work></rdf:RDF></metadata><defs
     id="defs22" /><g
     transform="translate(-5,-19.762)"
     style="display:none"
     display="none"
     id="g4"><rect
       style="display:inline;fill:#000000"
       x="-65.640999"
       y="-472.841"
       display="inline"
       width="1259.937"
       height="593.54102"
       id="rect6" /></g><g
     transform="translate(-5,-19.762)"
     id="g8"
     style="fill:#ff3d00"><path
       id="path10"
       d="m 83.991,29.975 c -6.07,0 -11.009,4.939 -11.009,11.009 l 0,29.195 c 0,1.708 -1.39,3.099 -3.099,3.099 l -2.236,0 0,-3.323 c 0,-8.915 -4.554,-16.785 -11.457,-21.41 0.975,-1.861 1.457,-4.112 1.457,-6.794 0,-0.649 -0.034,-1.29 -0.089,-1.925 -0.04,-0.459 -0.09,-0.916 -0.158,-1.366 0.915,0.626 2.02,0.993 3.21,0.993 3.145,0 5.703,-2.558 5.703,-5.703 0,-3.144 -2.558,-5.702 -5.703,-5.702 -2.46,0 -4.554,1.568 -5.353,3.754 -0.211,-0.413 -0.432,-0.82 -0.668,-1.218 -3.832,-6.471 -10.881,-10.822 -18.931,-10.822 -8.05,0 -15.1,4.351 -18.932,10.822 -0.236,0.398 -0.457,0.804 -0.668,1.218 C 15.259,29.616 13.164,28.048 10.705,28.048 7.558,28.047 5,30.605 5,33.749 c 0,3.145 2.558,5.703 5.703,5.703 1.19,0 2.295,-0.367 3.211,-0.993 -0.068,0.451 -0.118,0.907 -0.158,1.367 -0.055,0.635 -0.089,1.276 -0.089,1.925 0,7.387 3.605,11.549 11.344,13.1 l 2.917,0.584 0,-0.543 -0.916,-0.751 -1.199,-0.984 c -0.234,-0.192 -0.415,-0.353 -0.568,-0.506 l -4.891,-4.892 c -1.535,-1.535 -2.381,-3.584 -2.381,-5.77 0,-2.186 0.845,-4.235 2.381,-5.77 l 1.756,-1.757 c 1.535,-1.535 3.584,-2.381 5.77,-2.381 2.186,0 4.235,0.845 5.77,2.38 l 1.325,1.325 0.683,0.683 0.683,-0.683 1.324,-1.325 c 1.538,-1.538 3.588,-2.386 5.77,-2.386 2.182,0 4.232,0.847 5.771,2.385 l 1.755,1.756 c 1.535,1.535 2.381,3.584 2.381,5.77 0,2.186 -0.845,4.235 -2.381,5.77 l -4.892,4.892 c -0.151,0.151 -0.332,0.312 -0.568,0.506 l -2.115,1.735 0,0.543 0,2.759 c 0,3.577 -2.91,6.486 -6.487,6.486 l -2.484,0 c -0.268,0 -0.531,-0.021 -0.791,-0.053 -2.019,-0.247 -3.749,-1.424 -4.757,-3.089 l 0,16.171 c 0,1.313 1.065,2.4545 2.378,2.4545 l 28.55,0 c 3.335243,0.01088 -0.715333,0 0.966,0 1.681333,0 9.122,0 9.122,0 5.548,0 10.061,-4.4365 10.061,-9.9845 l 0,-29.193 c 0,-2.232 1.816,-4.047 4.048,-4.047 2.232,0 4.047,1.815 4.047,4.047 l 0,8.839 c 0,1.922 1.559,3.481 3.481,3.481 1.922,0 3.481,-1.559 3.481,-3.481 l 0,-8.839 C 95,34.913 90.061,29.975 83.991,29.975 Z"
       style="fill:#ff3d00" /><path
       d="m 34.618,52.437 c 0,-0.853 -0.673,-1.543 -1.515,-1.583 -0.843,0.04 -1.515,0.73 -1.515,1.583 0,0.853 0.673,1.543 1.515,1.583 0.843,-0.04 1.515,-0.73 1.515,-1.583 z"
       id="path12"
       style="fill:#ff3d00" /><path
       d="m 38.059,54.02 c 0.843,-0.04 1.515,-0.73 1.515,-1.583 0,-0.853 -0.673,-1.543 -1.515,-1.583 -0.843,0.04 -1.515,0.73 -1.515,1.583 -10e-4,0.853 0.672,1.543 1.515,1.583 z"
       id="path14"
       style="fill:#ff3d00" /><path
       d="m 33.185,43.382 c 0,-2.834 -2.306,-5.139 -5.14,-5.139 -2.834,0 -5.139,2.305 -5.139,5.139 0,2.834 2.305,5.139 5.139,5.139 2.834,0 5.14,-2.305 5.14,-5.139 z m -5.14,2.203 c -1.214,0 -2.202,-0.988 -2.202,-2.203 0,-1.215 0.988,-2.203 2.202,-2.203 1.215,0 2.203,0.988 2.203,2.203 0,1.215 -0.988,2.203 -2.203,2.203 z"
       id="path16"
       style="fill:#ff3d00" /><path
       d="m 43.267,48.277 c 2.834,0 5.14,-2.305 5.14,-5.139 0,-2.834 -2.306,-5.139 -5.14,-5.139 -2.834,0 -5.14,2.305 -5.14,5.139 10e-4,2.833 2.307,5.139 5.14,5.139 z m 0,-7.342 c 1.215,0 2.203,0.988 2.203,2.203 0,1.214 -0.988,2.203 -2.203,2.203 -1.215,0 -2.203,-0.988 -2.203,-2.203 10e-4,-1.215 0.989,-2.203 2.203,-2.203 z"
       id="path18"
       style="fill:#ff3d00" /></g></svg>
